<svg data-v-423bf9ae="" xmlns="http://www.w3.org/2000/svg" viewBox="0 0 179.71962509368512 60" class="font"><!----><!----><!----><g data-v-423bf9ae="" id="de3fee75-5c16-4f8d-906b-e8bce9892780" fill="black" transform="matrix(5.607476711273193,0,0,5.607476711273193,-4.542055606842041,-16.878503799438477)"><path d="M2.60 13.65L2.60 13.65Q1.71 13.65 1.26 13.14L1.26 13.14L1.26 13.14Q0.81 12.63 0.81 11.82L0.81 11.82L0.81 3.01L2.55 3.01L2.55 11.10L2.55 11.10Q2.55 11.66 2.61 11.89L2.61 11.89L2.61 11.89Q2.67 12.12 2.83 12.17L2.83 12.17L2.83 12.17Q3.00 12.22 3.39 12.22L3.39 12.22L3.23 13.65L2.60 13.65ZM7.87 13.65L7.87 13.65Q6.65 13.65 5.79 13.15L5.79 13.15L5.79 13.15Q4.93 12.66 4.50 11.82L4.50 11.82L4.50 11.82Q4.07 10.99 4.07 9.97L4.07 9.97L4.07 9.97Q4.07 8.99 4.48 8.18L4.48 8.18L4.48 8.18Q4.89 7.36 5.66 6.88L5.66 6.88L5.66 6.88Q6.43 6.40 7.49 6.40L7.49 6.40L7.49 6.40Q8.47 6.40 9.15 6.80L9.15 6.80L9.15 6.80Q9.83 7.21 10.17 7.90L10.17 7.90L10.17 7.90Q10.51 8.58 10.51 9.44L10.51 9.44L10.51 9.44Q10.51 9.86 10.40 10.39L10.40 10.39L5.88 10.39L5.88 10.39Q6.02 11.31 6.61 11.77L6.61 11.77L6.61 11.77Q7.20 12.22 8.02 12.22L8.02 12.22L8.02 12.22Q9.16 12.22 10.12 11.65L10.12 11.65L10.21 13.12L10.21 13.12Q9.76 13.36 9.16 13.50L9.16 13.50L9.16 13.50Q8.57 13.65 7.87 13.65L7.87 13.65ZM5.92 9.21L8.75 9.21L8.75 9.21Q8.75 8.67 8.44 8.25L8.44 8.25L8.44 8.25Q8.13 7.83 7.49 7.83L7.49 7.83L7.49 7.83Q6.85 7.83 6.45 8.20L6.45 8.20L6.45 8.20Q6.06 8.58 5.92 9.21L5.92 9.21ZM13.99 13.65L13.99 13.65Q13.06 13.65 12.59 13.11L12.59 13.11L12.59 13.11Q12.11 12.57 12.11 11.82L12.11 11.82L12.11 7.94L11.12 7.94L11.27 6.51L12.11 6.51L12.11 4.97L13.85 4.79L13.85 6.51L15.39 6.51L15.39 7.94L13.85 7.94L13.85 11.10L13.85 11.10Q13.85 11.66 13.91 11.88L13.91 11.88L13.91 11.88Q13.97 12.10 14.17 12.16L14.17 12.16L14.17 12.16Q14.38 12.22 14.91 12.22L14.91 12.22L15.39 12.22L15.23 13.65L13.99 13.65ZM21.14 13.71L21.14 13.71Q19.60 13.71 18.49 13.08L18.49 13.08L18.49 13.08Q17.37 12.45 16.79 11.29L16.79 11.29L16.79 11.29Q16.20 10.14 16.20 8.60L16.20 8.60L16.20 8.60Q16.20 7.08 16.85 5.93L16.85 5.93L16.85 5.93Q17.50 4.77 18.66 4.14L18.66 4.14L18.66 4.14Q19.82 3.51 21.32 3.51L21.32 3.51L21.32 3.51Q22.08 3.51 22.79 3.67L22.79 3.67L22.79 3.67Q23.51 3.82 24.02 4.09L24.02 4.09L23.83 5.80L23.83 5.80Q22.61 5.24 21.32 5.24L21.32 5.24L21.32 5.24Q19.75 5.24 18.96 6.15L18.96 6.15L18.96 6.15Q18.16 7.07 18.16 8.57L18.16 8.57L18.16 8.57Q18.16 10.12 18.94 11.05L18.94 11.05L18.94 11.05Q19.73 11.98 21.21 11.98L21.21 11.98L21.21 11.98Q21.81 11.98 22.55 11.83L22.55 11.83L22.55 10.08L21.21 10.08L21.21 8.60L24.35 8.60L24.35 12.96L24.35 12.96Q23.80 13.29 22.95 13.50L22.95 13.50L22.95 13.50Q22.11 13.71 21.14 13.71L21.14 13.71ZM25.82 5.45L25.82 3.71L27.55 3.71L27.55 5.45L25.82 5.45ZM25.82 13.51L25.82 6.51L27.55 6.51L27.55 13.51L25.82 13.51ZM31.46 13.65L31.46 13.65Q30.53 13.65 30.06 13.11L30.06 13.11L30.06 13.11Q29.58 12.57 29.58 11.82L29.58 11.82L29.58 7.94L28.59 7.94L28.74 6.51L29.58 6.51L29.58 4.97L31.32 4.79L31.32 6.51L32.86 6.51L32.86 7.94L31.32 7.94L31.32 11.10L31.32 11.10Q31.32 11.66 31.38 11.88L31.38 11.88L31.38 11.88Q31.44 12.10 31.65 12.16L31.65 12.16L31.65 12.16Q31.85 12.22 32.38 12.22L32.38 12.22L32.86 12.22L32.70 13.65L31.46 13.65Z"></path></g><!----><!----></svg>